<svg width="101" height="28" viewBox="0 0 101 28" fill="none" xmlns="http://www.w3.org/2000/svg">
<g clip-path="url(#clip0_4305_235)">
<path d="M18.182 4.00302C18.8753 1.38699 19.9677 0.46582 22.6284 0.46582H24.9974C27.8755 0.46582 29.3695 2.34439 29.3695 5.07168V24.1627C29.3695 26.7063 27.8755 27.9587 25.6165 27.9587C23.3575 27.9587 21.8634 26.7063 21.8634 24.1627V11.2637H21.7918L18.0029 25.5988C17.5296 27.4049 16.6905 27.9587 14.6873 27.9587C12.6842 27.9587 11.845 27.4049 11.3717 25.5988L7.58287 11.2637H7.50868V24.1627C7.50868 26.7063 6.01462 27.9587 3.75562 27.9587C1.49662 27.9587 0 26.7063 0 24.1627V5.07168C0 2.34439 1.49406 0.46582 4.37217 0.46582H6.74118C9.40183 0.46582 10.4942 1.38699 11.1875 4.00302L14.649 17.1608H14.7206L18.182 4.00302Z" fill="#E9FBFD"/>
<path d="M35.988 5.03545C35.988 2.1969 37.5921 0.46582 40.1786 0.46582C42.765 0.46582 44.3691 2.1969 44.3691 5.03545V23.389C44.3691 26.2276 42.765 27.9587 40.1786 27.9587C37.5921 27.9587 35.988 26.2276 35.988 23.389V5.03545Z" fill="#E9FBFD"/>
<path d="M63.2799 3.04562C64.119 1.31454 65.503 0.46582 67.1787 0.46582C69.4736 0.46582 71.1876 2.3832 71.1876 4.48172C71.1876 5.36666 70.8218 6.17657 70.1311 7.39272L64.0832 17.9707V23.389C64.0832 26.2276 62.4791 27.9587 59.8926 27.9587C57.3062 27.9587 55.7021 26.2276 55.7021 23.389V17.9707L49.6542 7.39272C48.9609 6.17657 48.5977 5.36666 48.5977 4.48172C48.5977 2.38062 50.3092 0.46582 52.6065 0.46582C54.2822 0.46582 55.6663 1.31454 56.5054 3.04562L59.8952 10.1588L63.285 3.04562H63.2799Z" fill="#E9FBFD"/>
<path d="M87.1594 0C94.7857 0 101 6.32659 101 14.0815C101 21.8364 94.7857 28 87.1594 28C79.533 28 73.3188 21.7562 73.3188 14.0815C73.3188 6.4068 79.533 0 87.1594 0ZM87.1594 20.5271C90.7001 20.5271 93.5322 17.6627 93.5322 14.0815C93.5322 10.5003 90.7001 7.63589 87.1594 7.63589C83.6187 7.63589 80.7866 10.5003 80.7866 14.0815C80.7866 17.6627 83.6187 20.5271 87.1594 20.5271Z" fill="#E9FBFD"/>
</g>
<defs>
<clipPath id="clip0_4305_235">
<rect width="101" height="28" fill="white"/>
</clipPath>
</defs>
</svg>
