<?xml version="1.0" encoding="UTF-8" standalone="no"?>
<!-- Created with Inkscape (http://www.inkscape.org/) -->

<svg
   width="1172.8643mm"
   height="110.48574mm"
   viewBox="0 0 1172.8643 110.48574"
   version="1.1"
   id="svg1"
   xmlns="http://www.w3.org/2000/svg"
   xmlns:svg="http://www.w3.org/2000/svg">
  <defs
     id="defs1">
    <linearGradient
       id="swatch2">
      <stop
         style="stop-color:#000000;stop-opacity:1;"
         offset="0"
         id="stop2" />
    </linearGradient>
  </defs>
  <g
     id="layer1"
     style="display:inline"
     transform="translate(-466.96323,-109.77506)">
    <a
       id="a153"
       transform="matrix(6.6516802,0,0,6.6516802,-1570.1445,-1416.4825)"
       style="fill:#000000">
      <path
         d="m 314.38667,235.64 -1.82755,1.82755 q -1.11384,-1.10302 -2.0222,-1.10302 -0.49744,0 -0.77861,0.21628 -0.28116,0.20547 -0.28116,0.51907 0,0.2379 0.17302,0.44337 0.18384,0.19465 0.88675,0.5407 l 1.08139,0.54069 q 1.7086,0.84349 2.34662,1.71941 0.63802,0.87593 0.63802,2.05465 0,1.56802 -1.15709,2.61697 -1.14628,1.04895 -3.08197,1.04895 -2.57371,0 -4.10928,-2.01139 l 1.81673,-1.97895 q 0.51907,0.60558 1.21116,0.98407 0.70291,0.36767 1.2436,0.36767 0.58395,0 0.94081,-0.28116 0.35686,-0.28116 0.35686,-0.64884 0,-0.68127 -1.28685,-1.33011 l -0.99488,-0.49744 q -2.85488,-1.43825 -2.85488,-3.60103 0,-1.395 1.07058,-2.37906 1.08139,-0.99488 2.75755,-0.99488 1.14627,0 2.15197,0.50825 1.01651,0.49744 1.71941,1.43825 z m 15.04226,0.73535 -2.45476,1.35174 q -0.69209,-0.72454 -1.37337,-1.0057 -0.67046,-0.28116 -1.57883,-0.28116 -1.65453,0 -2.68185,0.99488 -1.01651,0.98407 -1.01651,2.53046 0,1.50313 0.98406,2.45476 0.98407,0.95162 2.58453,0.95162 1.97895,0 3.08197,-1.35174 l 2.32499,1.58965 q -1.89244,2.45476 -5.34208,2.45476 -3.10359,0 -4.86626,-1.83837 -1.75185,-1.83837 -1.75185,-4.30394 0,-1.7086 0.8543,-3.14685 0.8543,-1.43825 2.37906,-2.26011 1.53557,-0.82185 3.42801,-0.82185 1.75185,0 3.14685,0.7029 1.39499,0.69209 2.28174,1.97895 z m 2.95229,-2.37907 h 2.53046 v 1.48151 q 0.41093,-0.87593 1.0922,-1.33011 0.68128,-0.45418 1.49232,-0.45418 0.57314,0 1.20035,0.30278 l -0.91918,2.54128 q -0.51907,-0.25954 -0.8543,-0.25954 -0.68128,0 -1.15709,0.84349 -0.465,0.84348 -0.465,3.30905 l 0.0108,0.57314 v 4.75813 h -2.93057 z m 17.45376,0 h 2.94139 v 11.76555 h -2.94139 v -1.2436 q -0.86511,0.82185 -1.74104,1.18953 -0.86511,0.35686 -1.88162,0.35686 -2.28174,0 -3.94708,-1.76267 -1.66534,-1.77349 -1.66534,-4.40127 0,-2.7251 1.61127,-4.46614 1.61127,-1.74104 3.91464,-1.74104 1.05976,0 1.98976,0.40011 0.92999,0.40011 1.71941,1.20034 z m -3.10359,2.42232 q -1.37337,0 -2.28174,0.97325 -0.90837,0.96244 -0.90837,2.47639 0,1.52476 0.91918,2.50883 0.93,0.98407 2.28174,0.98407 1.395,0 2.31418,-0.96244 0.91918,-0.97325 0.91918,-2.54127 0,-1.53558 -0.91918,-2.4872 -0.91918,-0.95163 -2.32499,-0.95163 z m 9.99215,-2.42232 h 2.96302 v 1.35174 q 0.75697,-0.83267 1.67615,-1.2436 0.93,-0.41092 2.02221,-0.41092 1.10302,0 1.98976,0.54069 0.88674,0.5407 1.42743,1.57883 0.70291,-1.03813 1.71942,-1.57883 1.02732,-0.54069 2.23848,-0.54069 1.25441,0 2.20604,0.58395 0.95162,0.58395 1.36255,1.52476 0.42174,0.94081 0.42174,3.06034 v 6.89928 h -2.97382 v -5.96929 q 0,-2.00057 -0.49745,-2.70348 -0.49744,-0.71371 -1.49232,-0.71371 -0.75697,0 -1.36255,0.43255 -0.59476,0.43256 -0.88674,1.20035 -0.29198,0.75697 -0.29198,2.44394 v 5.30964 h -2.97382 v -5.69894 q 0,-1.57883 -0.23791,-2.28173 -0.22709,-0.71372 -0.69209,-1.05977 -0.465,-0.34604 -1.12465,-0.34604 -0.73534,0 -1.34092,0.44337 -0.59477,0.43255 -0.89756,1.22197 -0.29197,0.78942 -0.29197,2.4872 v 5.23394 h -2.96302 z m 24.75315,-4.54184 v 5.83951 q 0.80023,-0.80023 1.73023,-1.20034 0.93,-0.40011 1.98976,-0.40011 2.30336,0 3.91464,1.74104 1.61127,1.74104 1.61127,4.46614 0,2.62778 -1.66534,4.40127 -1.66535,1.76267 -3.94708,1.76267 -1.01651,0 -1.89244,-0.35686 -0.87592,-0.36768 -1.74104,-1.18953 v 1.2436 h -2.93057 v -16.30739 z m 3.1036,6.96416 q -1.395,0 -2.31418,0.95163 -0.91918,0.95162 -0.91918,2.4872 0,1.56802 0.91918,2.54127 0.91918,0.96244 2.31418,0.96244 1.35174,0 2.27092,-0.98407 0.93,-0.98407 0.93,-2.50883 0,-1.51395 -0.90837,-2.47639 -0.90837,-0.97325 -2.29255,-0.97325 z m 9.2568,-6.96416 h 2.9522 v 16.30739 h -2.9522 z m 18.39458,11.27891 h -9.48381 q 0.20547,1.25442 1.09221,2.00058 0.89755,0.73535 2.28173,0.73535 1.65453,0 2.84406,-1.15709 l 2.4872,1.1679 q -0.92999,1.3193 -2.22766,1.95732 -1.29767,0.62721 -3.08197,0.62721 -2.76836,0 -4.5094,-1.74105 -1.74104,-1.75185 -1.74104,-4.37963 0,-2.69267 1.73022,-4.46615 1.74104,-1.78429 4.35801,-1.78429 2.77918,0 4.52022,1.78429 1.74104,1.77348 1.74104,4.69324 z m -2.96302,-2.32499 q -0.29197,-0.98406 -1.15709,-1.60046 -0.8543,-0.61639 -1.98976,-0.61639 -1.23278,0 -2.16278,0.69209 -0.58395,0.43256 -1.08139,1.52476 z m 12.9807,-4.41208 h 2.53045 v 1.48151 q 0.41093,-0.87593 1.09221,-1.33011 0.68128,-0.45418 1.49232,-0.45418 0.57314,0 1.20034,0.30278 l -0.91918,2.54128 q -0.51907,-0.25954 -0.8543,-0.25954 -0.68127,0 -1.15709,0.84349 -0.465,0.84348 -0.465,3.30905 l 0.0108,0.57314 v 4.75813 h -2.93057 z m 14.28528,-0.30278 q 1.66534,0 3.12522,0.83267 1.47069,0.83267 2.29255,2.26011 0.82185,1.42743 0.82185,3.08196 0,1.66534 -0.83267,3.11441 -0.82185,1.44906 -2.24929,2.27092 -1.42744,0.81105 -3.14685,0.81105 -2.53046,0 -4.32557,-1.79511 -1.78429,-1.80593 -1.78429,-4.37964 0,-2.75755 2.0222,-4.59592 1.77348,-1.60045 4.07685,-1.60045 z m 0.0433,2.77917 q -1.37337,0 -2.29255,0.96244 -0.90837,0.95162 -0.90837,2.44395 0,1.53557 0.89756,2.4872 0.90837,0.95162 2.29255,0.95162 1.38418,0 2.30336,-0.96244 0.91918,-0.96244 0.91918,-2.47638 0,-1.51395 -0.90837,-2.45476 -0.89755,-0.95163 -2.30336,-0.95163 z m 21.10886,-0.0973 -2.45476,1.35174 q -0.69209,-0.72454 -1.37336,-1.0057 -0.67047,-0.28116 -1.57883,-0.28116 -1.65453,0 -2.68186,0.99488 -1.0165,0.98407 -1.0165,2.53046 0,1.50313 0.98406,2.45476 0.98407,0.95162 2.58453,0.95162 1.97895,0 3.08196,-1.35174 l 2.325,1.58965 q -1.89244,2.45476 -5.34208,2.45476 -3.10359,0 -4.86626,-1.83837 -1.75185,-1.83837 -1.75185,-4.30394 0,-1.7086 0.85429,-3.14685 0.8543,-1.43825 2.37907,-2.26011 1.53557,-0.82185 3.42801,-0.82185 1.75185,0 3.14685,0.7029 1.39499,0.69209 2.28173,1.97895 z m 3.66602,-6.92091 h 2.9522 v 9.39729 l 4.34719,-4.85545 h 3.69836 l -5.06091,5.64487 5.67731,6.12068 h -3.66592 l -4.99603,-5.41778 v 5.41778 h -2.9522 z m 21.01154,6.18556 -1.82755,1.82755 q -1.11383,-1.10302 -2.0222,-1.10302 -0.49744,0 -0.77861,0.21628 -0.28116,0.20547 -0.28116,0.51907 0,0.2379 0.17303,0.44337 0.18383,0.19465 0.88674,0.5407 l 1.08139,0.54069 q 1.7086,0.84349 2.34662,1.71941 0.63802,0.87593 0.63802,2.05465 0,1.56802 -1.15709,2.61697 -1.14628,1.04895 -3.08197,1.04895 -2.57371,0 -4.10928,-2.01139 l 1.81673,-1.97895 q 0.51907,0.60558 1.21116,0.98407 0.70291,0.36767 1.2436,0.36767 0.58395,0 0.94081,-0.28116 0.35686,-0.28116 0.35686,-0.64884 0,-0.68127 -1.28685,-1.33011 l -0.99488,-0.49744 q -2.85488,-1.43825 -2.85488,-3.60103 0,-1.395 1.07058,-2.37906 1.08139,-0.99488 2.75755,-0.99488 1.14627,0 2.15197,0.50825 1.01651,0.49744 1.71941,1.43825 z"
         id="text153"
         style="font-weight:bold;font-size:22.1469px;font-family:'Century Gothic';-inkscape-font-specification:'Century Gothic, Bold';text-align:center;letter-spacing:0.984164px;word-spacing:0.155195px;text-anchor:middle;stroke-width:3.7626;stroke-opacity:0.878472;paint-order:markers fill stroke"
         aria-label="scramble rocks" />
    </a>
  </g>
</svg>
