<?xml version="1.0" encoding="UTF-8" standalone="no"?>
<!-- Created with Inkscape (http://www.inkscape.org/) -->

<svg
   width="1257.7097mm"
   height="126.47352mm"
   viewBox="0 0 1257.7097 126.47352"
   version="1.1"
   id="svg1"
   xmlns="http://www.w3.org/2000/svg"
   xmlns:svg="http://www.w3.org/2000/svg">
  <defs
     id="defs1">
    <linearGradient
       id="swatch2">
      <stop
         style="stop-color:#000000;stop-opacity:1;"
         offset="0"
         id="stop2" />
    </linearGradient>
  </defs>
  <g
     id="layer1"
     style="display:inline"
     transform="translate(-415.82956,258.94141)">
    <a
       id="a153"
       transform="matrix(6.6516802,0,0,6.6516802,-1570.1445,-1416.4825)"
       style="fill:#000000">
      <path
         d="m 308.69311,181.10301 -1.5721,2.52527 q -0.60656,-0.90365 -1.27502,-1.32453 -0.66845,-0.43326 -1.25025,-0.43326 -0.44564,0 -0.7551,0.24758 -0.30947,0.24757 -0.30947,0.55704 0,0.29709 0.24757,0.59418 0.2352,0.29709 1.42356,1.15123 1.89395,1.36166 2.48813,2.33958 0.60656,0.96555 0.60656,2.10439 0,1.49783 -1.23788,2.83474 -1.22549,1.3369 -3.56508,1.3369 -1.34928,0 -2.46337,-0.54466 -1.10171,-0.54467 -2.46338,-1.99298 l 2.0425,-2.37672 q 1.38642,1.83205 3.0328,1.83205 0.65607,0 1.03981,-0.30947 0.39612,-0.32184 0.39612,-0.7551 0,-0.34661 -0.29709,-0.70559 -0.29709,-0.37136 -1.62162,-1.31215 -1.53496,-1.08933 -2.11676,-1.86919 -0.817,-1.08933 -0.817,-2.30245 0,-1.69589 1.27501,-2.76046 1.28739,-1.06458 3.0328,-1.06458 1.22549,0 2.3272,0.58181 1.10171,0.5818 1.83206,1.64637 z m 16.18116,0.90365 -2.7976,1.52259 q -1.18836,-1.51021 -3.19372,-1.51021 -1.34929,0 -2.3891,0.5818 -1.03982,0.56942 -1.65876,1.65875 -0.61893,1.08933 -0.61893,2.30245 0,1.55973 0.97792,2.50051 0.97792,0.94079 2.68619,0.94079 2.36434,0 3.62697,-1.59686 l 2.59954,1.83206 q -1.10171,1.31214 -2.74808,2.05487 -1.634,0.74272 -3.65173,0.74272 -3.14421,0 -4.96389,-1.73302 -1.8073,-1.73303 -1.8073,-4.58014 0,-3.25562 2.24056,-5.54569 2.24056,-2.30245 5.7685,-2.30245 3.97358,0 5.92943,3.13183 z m 3.20821,-2.78522 h 2.94615 l -0.2352,1.83206 q 1.32453,-2.17867 3.18134,-2.17867 0.44564,0 0.92841,0.2352 l -1.18836,2.98328 q -0.37136,-0.11141 -0.54467,-0.11141 -0.95316,0 -1.70826,1.12647 -0.74273,1.11409 -1.17599,4.51825 l -0.64369,5.06291 h -3.31751 z m 18.8426,0 h 3.30512 l -1.75778,13.46809 h -3.26799 l 0.18568,-1.44832 q -1.07695,1.00268 -2.01774,1.3988 -0.92841,0.39612 -2.09201,0.39612 -2.67381,0 -4.25829,-1.96822 -1.5721,-1.96822 -1.5721,-4.58014 0,-1.99298 1.00267,-3.7879 1.00268,-1.8073 2.6862,-2.80998 1.69589,-1.01506 3.54032,-1.01506 1.23788,0 2.27769,0.56943 1.0522,0.56942 1.73303,1.65875 z m -4.87724,10.86855 q 1.21312,0 2.11677,-0.54467 0.90365,-0.54466 1.51021,-1.70826 0.61894,-1.16361 0.61894,-2.37673 0,-1.59686 -0.92841,-2.5624 -0.91603,-0.97792 -2.42624,-0.97792 -1.75778,0 -2.98328,1.29977 -1.22549,1.29977 -1.22549,3.35464 0,1.58448 0.9284,2.55003 0.92841,0.96554 2.3891,0.96554 z m 11.86098,-10.86855 h 3.3175 l -0.19806,1.46069 q 1.79492,-1.8073 4.0231,-1.8073 0.90365,0 1.68351,0.30947 0.79224,0.30947 1.27501,0.79224 0.49516,0.48277 0.84176,1.34929 0.92841,-1.20074 2.17866,-1.81968 1.25026,-0.63132 2.59954,-0.63132 1.69589,0 2.80998,1.13885 1.11409,1.12647 1.11409,2.93377 0,0.68083 -0.12379,1.69589 l -1.06457,8.04619 h -3.28037 l 0.90365,-6.91973 q 0.18568,-1.3988 0.18568,-1.85681 0,-0.95317 -0.48277,-1.44832 -0.4704,-0.49515 -1.33691,-0.49515 -0.84176,0 -1.70827,0.60656 -0.85413,0.59418 -1.31215,1.59686 -0.44563,0.9903 -0.7551,3.41654 l -0.66846,5.10005 h -3.30512 l 0.97792,-7.32823 q 0.12379,-0.89127 0.12379,-1.52258 0,-0.8789 -0.50753,-1.38642 -0.50753,-0.51991 -1.33691,-0.51991 -0.79224,0 -1.634,0.55704 -0.82937,0.54467 -1.29977,1.49783 -0.45801,0.94079 -0.71796,2.89663 l -0.75511,5.80564 h -3.30513 z m 25.46523,13.46809 h -3.30513 l 2.43861,-18.66717 h 3.268 l -0.86652,6.64739 q 1.07695,-1.01505 2.00536,-1.3988 0.94079,-0.39612 2.10439,-0.39612 2.67381,0 4.24592,1.96823 1.58448,1.96822 1.58448,4.56776 0,1.99298 -1.00268,3.80028 -1.00268,1.8073 -2.69857,2.82236 -1.68351,1.00267 -3.51557,1.00267 -1.25025,0 -2.30245,-0.56942 -1.03982,-0.56942 -1.70827,-1.65875 z m 4.87723,-10.88093 q -1.21312,0 -2.11677,0.55704 -0.90365,0.54467 -1.52259,1.70827 -0.60656,1.16361 -0.60656,2.37672 0,1.59686 0.91603,2.57479 0.92841,0.96554 2.43862,0.96554 1.75778,0 2.98328,-1.29977 1.2255,-1.29977 1.2255,-3.35464 0,-1.58449 -0.92841,-2.55003 -0.92841,-0.97792 -2.3891,-0.97792 z m 10.78402,-7.78624 h 3.29275 l -2.47576,18.66717 h -3.29275 z m 14.20055,14.71835 2.90901,1.5102 q -0.97792,1.28739 -2.59954,2.0425 -1.60924,0.74272 -3.57746,0.74272 -3.08231,0 -4.86485,-1.73302 -1.77017,-1.73303 -1.77017,-4.6049 0,-3.28037 2.2158,-5.54568 2.22818,-2.2777 5.37238,-2.2777 1.89395,0 3.36702,0.82938 1.48546,0.82938 2.33959,2.41386 0.85413,1.58448 0.85413,3.44129 0,0.58181 -0.12378,1.36167 h -10.74477 q 0.0495,1.3988 0.91603,2.22817 0.87889,0.82938 2.41386,0.82938 1.85681,0 3.29275,-1.23787 z m 0.84176,-4.24592 q -0.37137,-1.23788 -1.23788,-1.86919 -0.86651,-0.6437 -2.09201,-0.6437 -1.21312,0 -2.19104,0.65608 -0.97792,0.65607 -1.48545,1.85681 z m 13.6264,-5.27335 h 2.94614 l -0.2352,1.83206 q 1.32453,-2.17867 3.18135,-2.17867 0.44563,0 0.9284,0.2352 l -1.18836,2.98328 q -0.37136,-0.11141 -0.54466,-0.11141 -0.95317,0 -1.70827,1.12647 -0.74273,1.11409 -1.17599,4.51825 l -0.64369,5.06291 h -3.31751 z m 15.12896,-0.34661 q 1.79492,0 3.25562,0.82938 1.47307,0.82938 2.29007,2.35196 0.81699,1.52259 0.81699,3.41654 0,3.14421 -2.24055,5.36001 -2.24056,2.20341 -5.54569,2.20341 -2.87187,0 -4.58014,-1.73302 -1.70827,-1.74541 -1.70827,-4.55539 0,-3.39178 2.31483,-5.63233 2.31483,-2.24056 5.39714,-2.24056 z m -0.23519,3.13183 q -2.03012,0 -3.11945,1.46069 -1.07695,1.44832 -1.07695,3.14421 0,1.51021 0.87889,2.43861 0.89127,0.91603 2.36434,0.91603 2.09201,0 3.18134,-1.3988 1.10171,-1.41118 1.10171,-3.21848 0,-1.48545 -0.9284,-2.41385 -0.92841,-0.92841 -2.40148,-0.92841 z m 22.8038,0 -2.7976,1.52259 q -1.18837,-1.51021 -3.19372,-1.51021 -1.34929,0 -2.38911,0.5818 -1.03981,0.56942 -1.65875,1.65875 -0.61894,1.08933 -0.61894,2.30245 0,1.55973 0.97793,2.50051 0.97792,0.94079 2.68619,0.94079 2.36434,0 3.62697,-1.59686 l 2.59954,1.83206 q -1.10171,1.31214 -2.74808,2.05487 -1.634,0.74272 -3.65174,0.74272 -3.1442,0 -4.96388,-1.73302 -1.8073,-1.73303 -1.8073,-4.58014 0,-3.25562 2.24056,-5.54569 2.24055,-2.30245 5.7685,-2.30245 3.97358,0 5.92943,3.13183 z m 4.69365,-7.9843 h 3.25562 l -1.32453,9.89063 5.32287,-4.69155 h 4.53062 l -6.80831,6.0037 5.95418,7.46439 h -3.9612 l -5.32287,-6.63502 -0.87889,6.63502 h -3.24324 z m 21.55355,7.08065 -1.5721,2.52527 q -0.60656,-0.90365 -1.27501,-1.32453 -0.66845,-0.43326 -1.25026,-0.43326 -0.44563,0 -0.7551,0.24758 -0.30947,0.24757 -0.30947,0.55704 0,0.29709 0.24758,0.59418 0.23519,0.29709 1.42355,1.15123 1.89395,1.36166 2.48813,2.33958 0.60656,0.96555 0.60656,2.10439 0,1.49783 -1.23787,2.83474 -1.2255,1.3369 -3.56509,1.3369 -1.34928,0 -2.46337,-0.54466 -1.10171,-0.54467 -2.46337,-1.99298 l 2.04249,-2.37672 q 1.38642,1.83205 3.0328,1.83205 0.65607,0 1.03981,-0.30947 0.39612,-0.32184 0.39612,-0.7551 0,-0.34661 -0.29709,-0.70559 -0.29709,-0.37136 -1.62161,-1.31215 -1.53497,-1.08933 -2.11677,-1.86919 -0.817,-1.08933 -0.817,-2.30245 0,-1.69589 1.27501,-2.76046 1.28739,-1.06458 3.0328,-1.06458 1.2255,0 2.32721,0.58181 1.10171,0.5818 1.83205,1.64637 z"
         id="text1-3"
         style="font-style:italic;font-weight:bold;font-size:25.3517px;font-family:'Century Gothic';-inkscape-font-specification:'Century Gothic, Bold Italic';text-align:center;letter-spacing:0.113528px;word-spacing:0.0179024px;text-anchor:middle;fill:#000000;stroke-width:1.17058;stroke-opacity:0.878472;paint-order:markers fill stroke"
         aria-label="scramble rocks" />
    </a>
  </g>
</svg>
