<?xml version="1.0" encoding="UTF-8" standalone="no"?>
<!-- Created with Inkscape (http://www.inkscape.org/) -->

<svg
   width="50.388138mm"
   height="16.73077mm"
   viewBox="0 0 50.388139 16.73077"
   version="1.1"
   id="svg1"
   xml:space="preserve"
   xmlns="http://www.w3.org/2000/svg"
   xmlns:svg="http://www.w3.org/2000/svg"><defs
     id="defs1" /><g
     id="layer4"
     transform="translate(-123.67928,129.20142)"><g
       id="layer5"
       transform="translate(8.9229702,-0.79375)"><g
         id="g929576"><path
           d="m 157.3382,-128.40767 c -0.48315,0 -0.92517,0.11725 -1.3255,0.35192 -0.38651,0.23467 -0.72452,0.55945 -1.01441,0.97358 -0.27609,0.41413 -0.48997,0.90423 -0.64182,1.4702 -0.15185,0.55217 -0.22789,1.15264 -0.22789,1.80144 v 7.59902 c 0,0.62118 0.076,1.20793 0.22789,1.7601 0.15185,0.55217 0.36573,1.0354 0.64182,1.44952 0.28989,0.41413 0.6279,0.7384 1.01441,0.97307 0.40033,0.23467 0.84235,0.35192 1.3255,0.35192 h 4.59662 c 0.49695,0 0.93899,-0.11725 1.3255,-0.35192 0.40032,-0.24848 0.73832,-0.57275 1.01441,-0.97307 0.27608,-0.41412 0.48997,-0.89735 0.64182,-1.44952 0.15184,-0.55217 0.22789,-1.13892 0.22789,-1.7601 v -7.59902 c 0,-0.6488 -0.0829,-1.24927 -0.24856,-1.80144 -0.15185,-0.56597 -0.36574,-1.05607 -0.64182,-1.4702 -0.27609,-0.41413 -0.61409,-0.73891 -1.01441,-0.97358 -0.40033,-0.23467 -0.83549,-0.35192 -1.30483,-0.35192 z m 1.36684,2.09135 h 1.86345 c 0.22088,0 0.42103,0.0692 0.60048,0.20722 0.19326,0.12423 0.3517,0.3038 0.47594,0.53847 0.13804,0.22087 0.24156,0.48282 0.31058,0.78652 0.069,0.30369 0.10387,0.62847 0.10387,0.97358 v 7.59902 c 0,0.3313 -0.0349,0.6487 -0.10387,0.9524 -0.069,0.28988 -0.16567,0.55235 -0.28991,0.78703 -0.12424,0.22087 -0.28268,0.40043 -0.47594,0.53847 -0.17945,0.13804 -0.38647,0.2067 -0.62115,0.2067 h -1.86345 c -0.23467,0 -0.44908,-0.0687 -0.64234,-0.2067 -0.17945,-0.13804 -0.33103,-0.32447 -0.45527,-0.55914 -0.12424,-0.23468 -0.22088,-0.49714 -0.2899,-0.78704 -0.069,-0.30369 -0.10335,-0.61423 -0.10335,-0.93172 v -7.59902 c 0,-0.33131 0.0343,-0.64922 0.10335,-0.95291 0.069,-0.3037 0.16566,-0.56565 0.2899,-0.78652 0.13804,-0.23467 0.29649,-0.4211 0.47594,-0.55914 0.17946,-0.13804 0.387,-0.20722 0.62167,-0.20722 z"
           style="font-weight:bold;font-size:20.7064px;font-family:Unispace;-inkscape-font-specification:'Unispace, Bold';text-align:center;letter-spacing:0.562186px;word-spacing:0.0886523px;text-anchor:middle;fill:#eeeeee;fill-opacity:0.984266;stroke-width:0.081723;paint-order:markers fill stroke"
           id="path929574" /><path
           d="m 141.08028,-128.40767 v 16.73077 h 3.20962 v -7.24711 h 2.87838 c 1.00771,0 1.51153,1.0631 1.51153,3.18896 v 4.05815 h 3.06442 v -5.25911 c 0,-0.46935 -0.0549,-0.87653 -0.16537,-1.22164 -0.0966,-0.3451 -0.24185,-0.64191 -0.43511,-0.89038 -0.17946,-0.24848 -0.40709,-0.4555 -0.68317,-0.62115 -0.26228,-0.16565 -0.56595,-0.31088 -0.91105,-0.43512 0.78684,-0.31749 1.33186,-0.79385 1.63556,-1.42885 0.3175,-0.6488 0.47645,-1.39398 0.47645,-2.23604 0,-1.6427 -0.30367,-2.82305 -0.91105,-3.54087 -0.59359,-0.73162 -1.53944,-1.09761 -2.83704,-1.09761 z m 3.20962,2.09135 h 2.94039 c 0.46935,0 0.83533,0.24187 1.09761,0.72502 0.27608,0.48315 0.41392,1.13855 0.41392,1.9668 0,0.80066 -0.13784,1.44284 -0.41392,1.92599 -0.26228,0.46934 -0.62826,0.70383 -1.09761,0.70383 h -2.94039 z"
           style="font-weight:bold;font-size:20.7064px;font-family:Unispace;-inkscape-font-specification:'Unispace, Bold';text-align:center;letter-spacing:0.562186px;word-spacing:0.0886523px;text-anchor:middle;fill:#eeeeee;fill-opacity:0.984266;stroke-width:0.081723;paint-order:markers fill stroke"
           id="path929573" /><path
           d="m 127.76326,-128.40767 v 12.19616 c 0,0.63499 0.0692,1.2286 0.20722,1.78077 0.15185,0.55216 0.36574,1.0354 0.64182,1.44952 0.27609,0.40033 0.60722,0.71773 0.99374,0.9524 0.40032,0.23467 0.84922,0.35192 1.34617,0.35192 h 4.4726 c 0.49695,0 0.93847,-0.11725 1.32498,-0.35192 0.40033,-0.23467 0.73832,-0.55207 1.01441,-0.9524 0.27609,-0.41412 0.49049,-0.89736 0.64234,-1.44952 0.15184,-0.55217 0.22737,-1.14578 0.22737,-1.78077 v -12.19616 h -3.10575 v 12.19616 c 0,0.3313 -0.0343,0.6487 -0.10335,0.9524 -0.069,0.28988 -0.16567,0.55235 -0.28991,0.78703 -0.12424,0.22087 -0.27632,0.40043 -0.45578,0.53847 -0.17946,0.13804 -0.37962,0.2067 -0.60048,0.2067 h -1.78077 c -0.23468,0 -0.4417,-0.0687 -0.62115,-0.2067 -0.17946,-0.13804 -0.33156,-0.3176 -0.45579,-0.53847 -0.12424,-0.23468 -0.22088,-0.49715 -0.2899,-0.78703 -0.069,-0.3037 -0.10336,-0.6211 -0.10336,-0.9524 v -12.19616 z"
           style="font-weight:bold;font-size:20.7064px;font-family:Unispace;-inkscape-font-specification:'Unispace, Bold';text-align:center;letter-spacing:0.562186px;word-spacing:0.0886523px;text-anchor:middle;fill:#eeeeee;fill-opacity:0.984266;stroke-width:0.081723;paint-order:markers fill stroke"
           id="path929572" /><path
           d="m 117.94525,-128.40767 c -0.46934,0 -0.90399,0.11725 -1.30431,0.35192 -0.38652,0.23467 -0.71817,0.55945 -0.99425,0.97358 -0.27609,0.41413 -0.49684,0.90423 -0.66249,1.4702 -0.15185,0.55217 -0.2279,1.15264 -0.2279,1.80144 v 7.59902 c 0,0.63499 0.0761,1.2286 0.2279,1.78077 0.15184,0.55216 0.36573,1.0354 0.64182,1.44952 0.27608,0.40033 0.60773,0.71773 0.99425,0.9524 0.40033,0.23467 0.84184,0.35192 1.32498,0.35192 h 7.22644 v -9.44181 h -5.73557 v 2.07068 h 2.77451 v 5.32112 h -2.9192 c -0.22088,0 -0.42841,-0.0687 -0.62167,-0.2067 -0.17945,-0.13804 -0.3379,-0.32447 -0.47594,-0.55914 -0.12424,-0.23468 -0.22089,-0.49714 -0.28991,-0.78704 -0.069,-0.30369 -0.10387,-0.61423 -0.10387,-0.93172 v -7.59902 c 0,-0.33131 0.0349,-0.64922 0.10387,-0.95291 0.0828,-0.3037 0.18634,-0.56565 0.31058,-0.78652 0.13805,-0.23467 0.29649,-0.4211 0.47594,-0.55914 0.17945,-0.13804 0.38012,-0.20722 0.601,-0.20722 h 5.63169 v -2.09135 z"
           style="font-weight:bold;font-size:20.7064px;font-family:Unispace;-inkscape-font-specification:'Unispace, Bold';text-align:center;letter-spacing:0.562186px;word-spacing:0.0886523px;text-anchor:middle;fill:#eeeeee;fill-opacity:0.984266;stroke-width:0.081723;paint-order:markers fill stroke"
           id="path929571" /></g></g></g></svg>
