<?xml version="1.0" encoding="UTF-8" standalone="no"?>
<!-- Created with Inkscape (http://www.inkscape.org/) -->

<svg
   width="61.657219mm"
   height="20.472652mm"
   viewBox="0 0 61.65722 20.472652"
   version="1.1"
   id="svg1"
   xmlns="http://www.w3.org/2000/svg"
   xmlns:svg="http://www.w3.org/2000/svg">
  <defs
     id="defs1" />
  <g
     id="layer4"
     transform="translate(-78.356975,64.922653)">
    <g
       id="layer5"
       transform="translate(8.9229702,-0.79375)">
      <path
         d="m 121.53935,-64.128902 c -0.5912,0 -1.13175,0.143826 -1.62161,0.430981 -0.47296,0.287156 -0.88706,0.68388 -1.24178,1.190625 -0.33783,0.506746 -0.59968,1.106304 -0.78548,1.798857 -0.18581,0.675661 -0.27854,1.410615 -0.27854,2.204516 v 9.298658 c 0,0.760118 0.0927,1.478213 0.27854,2.153873 0.1858,0.675661 0.44765,1.26679 0.78548,1.773536 0.35472,0.506745 0.76882,0.903469 1.24178,1.190625 0.48986,0.287155 1.03041,0.430981 1.62161,0.430981 h 5.62446 c 0.6081,0 1.14865,-0.143826 1.62161,-0.430981 0.48985,-0.304047 0.90395,-0.700771 1.24178,-1.190625 0.33784,-0.506746 0.59968,-1.097875 0.78549,-1.773536 0.1858,-0.67566 0.27853,-1.393755 0.27853,-2.153873 v -9.298658 c 0,-0.793901 -0.10116,-1.528855 -0.30385,-2.204516 -0.18581,-0.692553 -0.44765,-1.292111 -0.78549,-1.798857 -0.33782,-0.506745 -0.75192,-0.903469 -1.24178,-1.190625 -0.48985,-0.287155 -1.02198,-0.430981 -1.59629,-0.430981 z m 1.67225,2.559017 h 2.27996 c 0.27027,0 0.51526,0.08482 0.73484,0.253731 0.23649,0.152024 0.43089,0.371202 0.58291,0.658358 0.16892,0.270264 0.29537,0.591635 0.37983,0.963248 0.0845,0.371613 0.12712,0.768337 0.12712,1.190625 v 9.298658 c 0,0.405397 -0.0427,0.794207 -0.12712,1.16582 -0.0845,0.354722 -0.20248,0.675576 -0.35451,0.962732 -0.15202,0.270264 -0.34643,0.489959 -0.58291,0.658874 -0.21958,0.168916 -0.473,0.253215 -0.76016,0.253215 h -2.27996 c -0.28716,0 -0.549,-0.0843 -0.78548,-0.253215 -0.21959,-0.168915 -0.40556,-0.39704 -0.55759,-0.684196 -0.15203,-0.287155 -0.27005,-0.60801 -0.3545,-0.962731 -0.0845,-0.371614 -0.12712,-0.751994 -0.12712,-1.140499 v -9.298658 c 0,-0.405396 0.0427,-0.79369 0.12712,-1.165303 0.0844,-0.371614 0.20247,-0.692984 0.3545,-0.963249 0.16891,-0.287155 0.36332,-0.514764 0.58291,-0.683679 0.21959,-0.168915 0.473,-0.253731 0.76016,-0.253731 z"
         style="font-weight:bold;font-size:25.3373px;font-family:Unispace;-inkscape-font-specification:'Unispace, Bold';text-align:center;letter-spacing:0.687917px;word-spacing:0.108479px;text-anchor:middle;fill:#2d21de;fill-opacity:0.984314;stroke-width:0.1;paint-order:markers fill stroke"
         id="path4" />
      <path
         d="m 101.64547,-64.128902 v 20.472652 h 3.92741 v -8.868193 h 3.52175 c 1.23308,0 1.8495,1.300794 1.8495,3.902088 v 4.966105 h 3.75016 v -6.435783 c 0,-0.574311 -0.0674,-1.072711 -0.20257,-1.494999 -0.11824,-0.422288 -0.29579,-0.785292 -0.53227,-1.089339 -0.21959,-0.304047 -0.4983,-0.557462 -0.83612,-0.760161 -0.32094,-0.202697 -0.69238,-0.379726 -1.11466,-0.53175 0.96281,-0.388505 1.62981,-0.971721 2.00142,-1.748731 0.38851,-0.793901 0.58291,-1.705884 0.58291,-2.736267 0,-2.01009 -0.37195,-3.454193 -1.11517,-4.332552 -0.72634,-0.89525 -1.8833,-1.34307 -3.47111,-1.34307 z m 3.92741,2.559017 h 3.59772 c 0.57431,0 1.02213,0.295564 1.34307,0.886767 0.33782,0.591203 0.50643,1.393598 0.50643,2.407089 0,0.979708 -0.16861,1.765242 -0.50643,2.356445 -0.32094,0.574311 -0.76876,0.861446 -1.34307,0.861446 h -3.59772 z"
         style="font-weight:bold;font-size:25.3373px;font-family:Unispace;-inkscape-font-specification:'Unispace, Bold';text-align:center;letter-spacing:0.687917px;word-spacing:0.108479px;text-anchor:middle;fill:#2d21de;fill-opacity:0.984314;stroke-width:0.1;paint-order:markers fill stroke"
         id="path3" />
      <path
         d="m 85.349828,-64.128902 v 14.923637 c 0,0.77701 0.0843,1.503534 0.253215,2.179195 0.185806,0.675661 0.447651,1.26679 0.785482,1.773535 0.33783,0.489854 0.743501,0.878148 1.216463,1.165304 0.489854,0.287155 1.038833,0.430981 1.646928,0.430981 h 5.472534 c 0.608095,0 1.148644,-0.143826 1.621606,-0.430981 0.489854,-0.287156 0.903955,-0.67545 1.241785,-1.165304 0.33783,-0.506745 0.599675,-1.097874 0.785482,-1.773535 0.185806,-0.675661 0.278536,-1.402185 0.278536,-2.179195 v -14.923637 h -3.800802 v 14.923637 c 0,0.405397 -0.04215,0.794207 -0.126607,1.16582 -0.08446,0.354722 -0.202476,0.675576 -0.3545,0.962732 -0.152023,0.270264 -0.337999,0.489959 -0.557589,0.658874 -0.21959,0.168916 -0.464574,0.253215 -0.734839,0.253215 h -2.178678 c -0.287156,0 -0.540571,-0.0843 -0.760161,-0.253215 -0.219589,-0.168915 -0.405565,-0.38861 -0.557588,-0.658874 -0.152024,-0.287156 -0.270043,-0.60801 -0.354501,-0.962732 -0.08446,-0.371613 -0.126607,-0.760423 -0.126607,-1.16582 v -14.923637 z"
         style="font-weight:bold;font-size:25.3373px;font-family:Unispace;-inkscape-font-specification:'Unispace, Bold';text-align:center;letter-spacing:0.687917px;word-spacing:0.108479px;text-anchor:middle;fill:#2d21de;fill-opacity:0.984314;stroke-width:0.1;paint-order:markers fill stroke"
         id="path2" />
      <path
         d="m 73.336091,-64.128902 c -0.574312,0 -1.106431,0.143826 -1.596285,0.430981 -0.472962,0.287156 -0.878116,0.68388 -1.215946,1.190625 -0.33783,0.506746 -0.608105,1.106304 -0.810803,1.798857 -0.185807,0.675661 -0.279053,1.410615 -0.279053,2.204516 v 9.298658 c 0,0.77701 0.09325,1.503534 0.279053,2.179195 0.185806,0.675661 0.447651,1.26679 0.785482,1.773535 0.33783,0.489854 0.742984,0.878148 1.215946,1.165304 0.489854,0.287155 1.030403,0.430981 1.621606,0.430981 h 8.842872 V -55.210067 H 75.16027 v 2.533696 h 3.395141 v 6.511747 h -3.572392 c -0.270264,0 -0.523679,-0.0843 -0.76016,-0.253215 -0.21959,-0.168915 -0.413995,-0.39704 -0.58291,-0.684196 -0.152024,-0.287155 -0.270043,-0.60801 -0.3545,-0.962731 -0.08446,-0.371614 -0.126608,-0.751994 -0.126608,-1.140499 v -9.298658 c 0,-0.405396 0.04215,-0.79369 0.126608,-1.165303 0.101349,-0.371614 0.227798,-0.692984 0.379821,-0.963249 0.168916,-0.287155 0.363321,-0.514764 0.582911,-0.683679 0.219589,-0.168915 0.464574,-0.253731 0.734838,-0.253731 h 6.891569 v -2.559017 z"
         style="font-weight:bold;font-size:25.3373px;font-family:Unispace;-inkscape-font-specification:'Unispace, Bold';text-align:center;letter-spacing:0.687917px;word-spacing:0.108479px;text-anchor:middle;fill:#2d21de;fill-opacity:0.984314;stroke-width:0.1;paint-order:markers fill stroke"
         id="path1" />
    </g>
  </g>
</svg>
