<?xml version="1.0" encoding="UTF-8" standalone="no"?>
<!-- Created with Inkscape (http://www.inkscape.org/) -->

<svg
   width="1275.8829mm"
   height="215.25818mm"
   viewBox="0 0 1275.8829 215.25818"
   version="1.1"
   id="svg1"
   inkscape:version="1.3.2 (091e20e, 2023-11-25, custom)"
   sodipodi:docname="dibujo-1.svg"
   xmlns:inkscape="http://www.inkscape.org/namespaces/inkscape"
   xmlns:sodipodi="http://sodipodi.sourceforge.net/DTD/sodipodi-0.dtd"
   xmlns="http://www.w3.org/2000/svg"
   xmlns:svg="http://www.w3.org/2000/svg">
  <sodipodi:namedview
     id="namedview1"
     pagecolor="#ffffff"
     bordercolor="#000000"
     borderopacity="0.25"
     inkscape:showpageshadow="2"
     inkscape:pageopacity="0.0"
     inkscape:pagecheckerboard="0"
     inkscape:deskcolor="#d1d1d1"
     inkscape:document-units="mm"
     inkscape:zoom="0.092537353"
     inkscape:cx="2323.3861"
     inkscape:cy="1064.435"
     inkscape:window-width="1920"
     inkscape:window-height="1009"
     inkscape:window-x="-8"
     inkscape:window-y="-8"
     inkscape:window-maximized="1"
     inkscape:current-layer="layer1"
     inkscape:export-bgcolor="#ffffff00" />
  <defs
     id="defs1">
    <linearGradient
       id="swatch2"
       inkscape:swatch="solid">
      <stop
         style="stop-color:#000000;stop-opacity:1;"
         offset="0"
         id="stop2" />
    </linearGradient>
  </defs>
  <g
     inkscape:label="Capa 1"
     inkscape:groupmode="layer"
     id="layer1"
     style="display:inline"
     transform="translate(-3374.9672,266.59183)">
    <g
       id="g20"
       transform="translate(457.47292,-194.42599)">
      <path
         id="path15-7"
         style="font-weight:bold;font-size:292.995px;font-family:'Century Gothic';-inkscape-font-specification:'Century Gothic, Bold';text-align:center;letter-spacing:1.79768px;word-spacing:0.28348px;text-anchor:middle;display:inline;fill:#ffffff;stroke-width:8.08227;stroke-opacity:0.878472;paint-order:markers fill stroke"
         d="m 3669.4277,-72.165837 v 66.19441 H 3642.912 V 33.22773 h 26.5157 v 109.86461 h 39.1992 V 33.22773 h 26.5157 V -5.971427 h -26.5157 v -66.19441 z" />
      <g
         id="g19"
         transform="translate(0,4.00597)">
        <path
           d="M 3774.3424,-16.567154 V 139.08637 h 39.1997 V -16.567154 Z"
           style="font-weight:bold;font-size:292.995px;font-family:'Century Gothic';-inkscape-font-specification:'Century Gothic, Bold';text-align:center;letter-spacing:1.79768px;word-spacing:0.28348px;text-anchor:middle;fill:#ffffff;stroke-width:6.87279;stroke-opacity:0.878472;paint-order:markers fill stroke"
           id="path15" />
        <path
           d="m 3813.5421,-74.168624 h -39.1997 v 39.1996 h 39.1997 z"
           style="font-weight:bold;font-size:292.995px;font-family:'Century Gothic';-inkscape-font-specification:'Century Gothic, Bold';text-align:center;letter-spacing:1.79768px;word-spacing:0.28348px;text-anchor:middle;display:inline;fill:#ffffff;stroke-width:3.44902;stroke-opacity:0.878472;paint-order:markers fill stroke"
           id="path15-7-8-0" />
      </g>
      <path
         d="m 2917.4943,-12.561195 66.3815,155.653535 h 25.3225 l 66.2388,-155.653535 h -39.6291 l -39.1991,91.8471 -39.3428,-91.8471 z"
         style="font-weight:bold;font-size:292.995px;font-family:'Century Gothic';-inkscape-font-specification:'Century Gothic, Bold';text-align:center;letter-spacing:1.79768px;word-spacing:0.28348px;text-anchor:middle;fill:#ffffff;stroke-width:6.87279;stroke-opacity:0.878472;paint-order:markers fill stroke"
         id="path14" />
      <path
         d="m 4140.4435,-16.567142 c -7.5347,0 -14.9263,1.47821 -22.1749,4.43487 -7.1532,2.86127 -15.1648,8.0119305 -24.0347,15.45125 v -15.88016 h -38.9134 V 143.09234 h 38.9134 V 80.573178 c 0,-16.21389 0.5722,-26.75302 1.7167,-31.61719 2.1937,-9.34684 6.1039,-16.64291 11.7311,-21.88858 5.7225,-5.34105 12.542,-8.0114 20.4581,-8.0114 6.1041,0 11.2064,1.62101 15.3076,4.86378 4.1965,3.14741 7.1058,7.77313 8.7272,13.87719 1.7166,6.10406 2.575,18.45526 2.575,37.05356 v 68.241802 h 38.6276 V 40.229388 c 0,-17.93067 -4.5307,-31.47399 -13.5914,-40.6300795 -10.7775,-10.7774705 -23.8914,-16.1664505 -39.3423,-16.1664505 z"
         style="font-weight:bold;font-size:292.995px;font-family:'Century Gothic';-inkscape-font-specification:'Century Gothic, Bold';text-align:center;letter-spacing:1.79768px;word-spacing:0.28348px;text-anchor:middle;fill:#ffffff;stroke-width:6.87279;stroke-opacity:0.878472;paint-order:markers fill stroke"
         id="path13" />
      <path
         d="m 3933.2867,-20.57312 c -23.0809,-3e-5 -42.2995,7.86869 -57.6549,23.605749 -15.2601,15.641651 -22.89,35.336741 -22.89,59.085331 0,23.1763 7.6777,42.48971 23.0332,57.94061 15.3556,15.35554 35.2416,23.03374 59.6578,23.03377 15.7371,-2e-5 29.3281,-2.76597 40.7733,-8.29773 11.4451,-5.62716 21.2687,-14.25912 29.471,-25.89499 l -32.9044,-15.4508 c -10.4913,10.20523 -23.0337,15.30812 -37.6261,15.30812 -12.2081,2e-5 -22.2701,-3.24306 -30.1863,-9.728613 -7.8209,-6.580897 -12.6377,-15.403017 -14.4498,-26.466607 l 125.4673,2e-5 0.143,-7.43937 c 10e-5,-25.75144 -7.6776,-46.44807 -23.0331,-62.089741 -15.3555,-15.736979 -35.2893,-23.605769 -59.801,-23.605749 z m 1.8599,33.04758 c 10.0144,0 18.7892,2.71861 26.3238,8.15502 7.6302,5.43643 12.7326,12.49421 15.3077,21.17346 l -84.5509,-4e-5 c 4.3873,-9.63298 9.1563,-16.35685 14.3066,-20.17186 8.2023,-6.10411 17.7399,-9.15657 28.6128,-9.15658 z"
         style="font-weight:bold;font-size:292.995px;font-family:'Century Gothic';-inkscape-font-specification:'Century Gothic, Bold';text-align:center;letter-spacing:1.79768px;word-spacing:0.28348px;text-anchor:middle;fill:#ffffff;stroke-width:6.87279;stroke-opacity:0.878472;paint-order:markers fill stroke"
         id="path12" />
      <path
         d="m 3587.7542,-17.350018 c -7.1882,0 -13.801,2.01297 -19.8392,6.03841 -6.0381,4.02542 -10.8781,9.9198 -14.5201,17.6831189 V -13.324418 h -33.6417 V 143.09234 h 38.9608 V 79.835592 l -0.1438,-7.61966 c 0,-21.85232 2.0605,-36.51654 6.1818,-43.99235 4.2171,-7.4758 9.3449,-11.213711 15.3832,-11.213711 2.971,0 6.7569,1.14997 11.3575,3.45021 l 12.2195,-33.784499 c -5.5588,-2.68363 -10.8784,-4.0256 -15.958,-4.0256 z"
         style="font-weight:bold;font-size:292.995px;font-family:'Century Gothic';-inkscape-font-specification:'Century Gothic, Bold';text-align:center;letter-spacing:1.79768px;word-spacing:0.28348px;text-anchor:middle;fill:#ffffff;stroke-width:6.90649;stroke-opacity:0.878472;paint-order:markers fill stroke"
         id="path11" />
      <path
         d="m 3399.1588,-20.604914 c -23.0776,-0.38948 -42.426,7.15386 -58.0449,22.6295195 -15.5219,15.3819105 -23.4831,34.9454105 -23.8839,58.6906205 -0.3911,23.17304 6.9596,42.613244 22.0522,58.321084 15.0943,15.61241 34.8479,23.62512 59.2608,24.03715 15.7346,0.26556 29.3705,-2.2706 40.9073,-7.60846 11.5385,-5.43327 21.5064,-13.89825 29.9039,-25.39407 l -32.6391,-16.003784 c -10.6621,10.026714 -23.2886,14.917244 -37.8791,14.670984 -12.2064,-0.20604 -22.2121,-3.61837 -30.0178,-10.236594 -7.7087,-6.712 -12.3758,-15.61405 -14.001,-26.70667 l 125.4493,2.11721 0.2688,-7.43583 c 0.4345,-25.74783 -6.8929,-46.57103 -21.9823,-62.4696105 -15.0879,-15.9939295 -34.8859,-24.1979295 -59.3942,-24.6115495 z m 1.302,33.07428 c 10.013,0.16898 18.7409,3.03535 26.1826,8.59812 7.5372,5.56445 12.5197,12.70725 14.948,21.42865 l -84.5387,-1.42676 c 4.5492,-9.55755 9.431,-16.20002 14.6449,-19.9276 8.3041,-5.96478 17.8919,-8.85589 28.7632,-8.67241 z"
         style="font-weight:bold;font-size:292.995px;font-family:'Century Gothic';-inkscape-font-specification:'Century Gothic, Bold';text-align:center;letter-spacing:1.79768px;word-spacing:0.28348px;text-anchor:middle;fill:#ffffff;stroke-width:6.87279;stroke-opacity:0.878472;paint-order:markers fill stroke"
         id="path10" />
      <path
         d="m 3195.1818,-20.573123 c -23.081,10e-6 -42.2994,7.86877 -57.6549,23.6057995 -15.2601,15.6416405 -22.8901,35.3367005 -22.8901,59.0852805 0,23.17634 7.6777,42.489743 23.0333,57.940643 15.3555,15.35548 35.2411,23.03373 59.6573,23.03374 15.737,-1e-5 29.3281,-2.7659 40.7732,-8.29768 11.4451,-5.6272 21.2693,-14.25917 29.4716,-25.89507 l -32.905,-15.450733 c -10.4913,10.205223 -23.0331,15.308113 -37.6256,15.308103 -12.2081,0 -22.2706,-3.24303 -30.1868,-9.728603 -7.8208,-6.58094 -12.6371,-15.40299 -14.4492,-26.4666 h 125.4667 l 0.1432,-7.43933 c 0,-25.75149 -7.6777,-46.4481 -23.0332,-62.0897505 -15.3555,-15.7370295 -35.2889,-23.6057995 -59.8005,-23.6057995 z m 1.8598,33.04759 c 10.0145,0 18.7888,2.71864 26.3235,8.15506 7.6301,5.43643 12.7329,12.49419 15.3081,21.1734 l -84.5509,-10e-6 c 4.3873,-9.63296 9.1563,-16.35685 14.3066,-20.1719 8.2023,-6.10405 17.7399,-9.15655 28.6127,-9.15655 z"
         style="font-weight:bold;font-size:292.995px;font-family:'Century Gothic';-inkscape-font-specification:'Century Gothic, Bold';text-align:center;letter-spacing:1.79768px;word-spacing:0.28348px;text-anchor:middle;fill:#ffffff;stroke-width:6.87279;stroke-opacity:0.878472;paint-order:markers fill stroke"
         id="path9" />
    </g>
  </g>
</svg>
